<svg width="49" height="49" viewBox="0 0 49 49" fill="none" xmlns="http://www.w3.org/2000/svg">
<g id="icon / back">
<path id="Vector" d="M30.5754 42.9752L13.5442 25.9946C13.342 25.7924 13.1992 25.5735 13.1156 25.3376C13.0307 25.1018 12.9883 24.8491 12.9883 24.5795C12.9883 24.31 13.0307 24.0573 13.1156 23.8215C13.1992 23.5856 13.342 23.3666 13.5442 23.1645L30.5754 6.13331C31.0471 5.66162 31.6367 5.42578 32.3442 5.42578C33.0517 5.42578 33.6582 5.67847 34.1636 6.18385C34.6689 6.68922 34.9216 7.27883 34.9216 7.95266C34.9216 8.6265 34.6689 9.2161 34.1636 9.72148L19.3055 24.5795L34.1636 39.4376C34.6352 39.9093 34.8711 40.4901 34.8711 41.1802C34.8711 41.8715 34.6184 42.4699 34.113 42.9752C33.6076 43.4806 33.018 43.7333 32.3442 43.7333C31.6704 43.7333 31.0808 43.4806 30.5754 42.9752Z" fill="white"/>
</g>
</svg>
