<svg width="26" height="26" viewBox="0 0 26 26" fill="none" xmlns="http://www.w3.org/2000/svg">
<g id="Property 1=Default">
<path id="Vector" d="M2.16669 6.07869C2.16669 5.04116 2.57885 4.04611 3.3125 3.31247C4.04615 2.57882 5.04119 2.16666 6.07872 2.16666H19.9213C20.9589 2.16666 21.9539 2.57882 22.6875 3.31247C23.4212 4.04611 23.8334 5.04116 23.8334 6.07869V19.9213C23.8334 20.9588 23.4212 21.9539 22.6875 22.6875C21.9539 23.4212 20.9589 23.8333 19.9213 23.8333H6.07872C5.04119 23.8333 4.04615 23.4212 3.3125 22.6875C2.57885 21.9539 2.16669 20.9588 2.16669 19.9213V6.07869ZM6.07872 4.57406C5.24817 4.57406 4.57409 5.24814 4.57409 6.07869V19.9213C4.57409 20.7518 5.24817 21.4259 6.07872 21.4259H19.9213C20.7519 21.4259 21.4259 20.7518 21.4259 19.9213V6.07869C21.4259 5.24814 20.7519 4.57406 19.9213 4.57406H6.07872Z" fill="#fff"/>
</g>
</svg>
