<svg width="26" height="26" viewBox="0 0 26 26" fill="none" xmlns="http://www.w3.org/2000/svg">
<g id="Group">
<path id="Vector" fill-rule="evenodd" clip-rule="evenodd" d="M4.57409 2.16666C3.93561 2.16666 3.32328 2.42029 2.8718 2.87177C2.42032 3.32325 2.16669 3.93558 2.16669 4.57406V21.4259C2.16669 22.0644 2.42032 22.6767 2.8718 23.1282C3.32328 23.5797 3.93561 23.8333 4.57409 23.8333H21.4259C22.0644 23.8333 22.6768 23.5797 23.1282 23.1282C23.5797 22.6767 23.8334 22.0644 23.8334 21.4259V4.57406C23.8334 3.93558 23.5797 3.32325 23.1282 2.87177C22.6768 2.42029 22.0644 2.16666 21.4259 2.16666H4.57409ZM18.9584 10.347C19.1842 10.1213 19.3112 9.81514 19.3113 9.49583C19.3114 9.17653 19.1847 8.87025 18.959 8.64439C18.7333 8.41852 18.4271 8.29157 18.1078 8.29146C17.7885 8.29135 17.4822 8.41808 17.2563 8.64379L11.298 14.6021L8.74493 12.0491C8.63317 11.9372 8.50048 11.8485 8.35443 11.7879C8.20838 11.7274 8.05184 11.6962 7.89373 11.6961C7.57443 11.696 7.26815 11.8228 7.04229 12.0485C6.81642 12.2742 6.68947 12.5803 6.68936 12.8997C6.68925 13.219 6.81598 13.5252 7.04169 13.7511L10.3615 17.0709C10.4845 17.1939 10.6305 17.2915 10.7911 17.3581C10.9518 17.4247 11.1241 17.4589 11.298 17.4589C11.4719 17.4589 11.6441 17.4247 11.8048 17.3581C11.9655 17.2915 12.1115 17.1939 12.2345 17.0709L18.9584 10.347Z" fill="#FFF"/>
</g>
</svg>
