<svg width="41" height="41" viewBox="0 0 41 41" fill="none" xmlns="http://www.w3.org/2000/svg">
<g filter="url(#filter0_d_66_1000)">
<path d="M31.2625 9.7546C31.1045 9.59623 30.9167 9.47059 30.7101 9.38486C30.5034 9.29913 30.2819 9.25501 30.0581 9.25501C29.8344 9.25501 29.6129 9.29913 29.4062 9.38486C29.1995 9.47059 29.0118 9.59623 28.8538 9.7546L20.5 18.0913L12.1463 9.73752C11.9881 9.57935 11.8003 9.45389 11.5937 9.3683C11.387 9.2827 11.1656 9.23865 10.9419 9.23865C10.7182 9.23865 10.4967 9.2827 10.2901 9.3683C10.0834 9.45389 9.89568 9.57935 9.73752 9.73752C9.57935 9.89568 9.45389 10.0834 9.3683 10.2901C9.2827 10.4967 9.23865 10.7182 9.23865 10.9419C9.23865 11.1656 9.2827 11.387 9.3683 11.5937C9.45389 11.8003 9.57935 11.9881 9.73752 12.1463L18.0913 20.5L9.73752 28.8538C9.57935 29.0119 9.45389 29.1997 9.3683 29.4063C9.2827 29.613 9.23865 29.8345 9.23865 30.0581C9.23865 30.2818 9.2827 30.5033 9.3683 30.7099C9.45389 30.9166 9.57935 31.1044 9.73752 31.2625C9.89568 31.4207 10.0834 31.5461 10.2901 31.6317C10.4967 31.7173 10.7182 31.7614 10.9419 31.7614C11.1656 31.7614 11.387 31.7173 11.5937 31.6317C11.8003 31.5461 11.9881 31.4207 12.1463 31.2625L20.5 22.9088L28.8538 31.2625C29.0119 31.4207 29.1997 31.5461 29.4063 31.6317C29.613 31.7173 29.8345 31.7614 30.0581 31.7614C30.2818 31.7614 30.5033 31.7173 30.7099 31.6317C30.9166 31.5461 31.1044 31.4207 31.2625 31.2625C31.4207 31.1044 31.5461 30.9166 31.6317 30.7099C31.7173 30.5033 31.7614 30.2818 31.7614 30.0581C31.7614 29.8345 31.7173 29.613 31.6317 29.4063C31.5461 29.1997 31.4207 29.0119 31.2625 28.8538L22.9088 20.5L31.2625 12.1463C31.9117 11.4971 31.9117 10.4038 31.2625 9.7546Z" fill="white"/>
</g>
<defs>
<filter id="filter0_d_66_1000" x="-4" y="0" width="49" height="49" filterUnits="userSpaceOnUse" color-interpolation-filters="sRGB">
<feFlood flood-opacity="0" result="BackgroundImageFix"/>
<feColorMatrix in="SourceAlpha" type="matrix" values="0 0 0 0 0 0 0 0 0 0 0 0 0 0 0 0 0 0 127 0" result="hardAlpha"/>
<feOffset dy="4"/>
<feGaussianBlur stdDeviation="2"/>
<feComposite in2="hardAlpha" operator="out"/>
<feColorMatrix type="matrix" values="0 0 0 0 0 0 0 0 0 0 0 0 0 0 0 0 0 0 0.25 0"/>
<feBlend mode="normal" in2="BackgroundImageFix" result="effect1_dropShadow_66_1000"/>
<feBlend mode="normal" in="SourceGraphic" in2="effect1_dropShadow_66_1000" result="shape"/>
</filter>
</defs>
</svg>
