<svg width="41" height="41" viewBox="0 0 41 41" fill="none" xmlns="http://www.w3.org/2000/svg">
<path d="M31.2624 9.7546C31.1043 9.59623 30.9166 9.47059 30.71 9.38486C30.5033 9.29913 30.2818 9.25501 30.058 9.25501C29.8343 9.25501 29.6127 9.29913 29.4061 9.38486C29.1994 9.47059 29.0117 9.59623 28.8536 9.7546L20.4999 18.0913L12.1461 9.73752C11.988 9.57935 11.8002 9.45389 11.5936 9.3683C11.3869 9.2827 11.1654 9.23865 10.9418 9.23865C10.7181 9.23865 10.4966 9.2827 10.29 9.3683C10.0833 9.45389 9.89555 9.57935 9.73739 9.73752C9.57923 9.89568 9.45377 10.0834 9.36818 10.2901C9.28258 10.4967 9.23853 10.7182 9.23853 10.9419C9.23853 11.1656 9.28258 11.387 9.36818 11.5937C9.45377 11.8003 9.57923 11.9881 9.73739 12.1463L18.0911 20.5L9.73739 28.8538C9.57923 29.0119 9.45377 29.1997 9.36818 29.4063C9.28258 29.613 9.23853 29.8345 9.23853 30.0581C9.23853 30.2818 9.28258 30.5033 9.36818 30.7099C9.45377 30.9166 9.57923 31.1044 9.73739 31.2625C9.89555 31.4207 10.0833 31.5461 10.29 31.6317C10.4966 31.7173 10.7181 31.7614 10.9418 31.7614C11.1654 31.7614 11.3869 31.7173 11.5936 31.6317C11.8002 31.5461 11.988 31.4207 12.1461 31.2625L20.4999 22.9088L28.8536 31.2625C29.0118 31.4207 29.1996 31.5461 29.4062 31.6317C29.6129 31.7173 29.8343 31.7614 30.058 31.7614C30.2817 31.7614 30.5032 31.7173 30.7098 31.6317C30.9165 31.5461 31.1042 31.4207 31.2624 31.2625C31.4206 31.1044 31.546 30.9166 31.6316 30.7099C31.7172 30.5033 31.7613 30.2818 31.7613 30.0581C31.7613 29.8345 31.7172 29.613 31.6316 29.4063C31.546 29.1997 31.4206 29.0119 31.2624 28.8538L22.9086 20.5L31.2624 12.1463C31.9116 11.4971 31.9116 10.4038 31.2624 9.7546Z" fill="#C31E1E"/>
</svg>
