<svg width="31" height="30" viewBox="0 0 31 30" fill="none" xmlns="http://www.w3.org/2000/svg">
<g id="icon / hamburguer">
<path id="Vector" d="M3 7.27929C3 6.57214 3.5575 6 4.24375 6H14.2563C14.5861 6 14.9025 6.13478 15.1357 6.37469C15.369 6.61461 15.5 6.94 15.5 7.27929C15.5 7.61857 15.369 7.94396 15.1357 8.18388C14.9025 8.42379 14.5861 8.55857 14.2563 8.55857H4.24375C3.91389 8.55857 3.59753 8.42379 3.36429 8.18388C3.13104 7.94396 3 7.61857 3 7.27929ZM3 15C3 14.2929 3.5575 13.7207 4.24375 13.7207H26.7562C27.0861 13.7207 27.4025 13.8555 27.6357 14.0954C27.869 14.3353 28 14.6607 28 15C28 15.3393 27.869 15.6647 27.6357 15.9046C27.4025 16.1445 27.0861 16.2793 26.7562 16.2793H4.24375C3.91389 16.2793 3.59753 16.1445 3.36429 15.9046C3.13104 15.6647 3 15.3393 3 15ZM4.24375 21.4414C3.91389 21.4414 3.59753 21.5762 3.36429 21.8161C3.13104 22.056 3 22.3814 3 22.7207C3 23.06 3.13104 23.3854 3.36429 23.6253C3.59753 23.8652 3.91389 24 4.24375 24H19.2563C19.5861 24 19.9025 23.8652 20.1357 23.6253C20.369 23.3854 20.5 23.06 20.5 22.7207C20.5 22.3814 20.369 22.056 20.1357 21.8161C19.9025 21.5762 19.5861 21.4414 19.2563 21.4414H4.24375Z" fill="#B7BABA"/>
</g>
</svg>
