<svg width="24" height="24" viewBox="0 0 24 24" fill="none" xmlns="http://www.w3.org/2000/svg">
<path d="M8.57515 21.1L17.0001 12.7C17.1001 12.6 17.1708 12.4917 17.2121 12.375C17.2541 12.2583 17.2751 12.1333 17.2751 12C17.2751 11.8667 17.2541 11.7417 17.2121 11.625C17.1708 11.5083 17.1001 11.4 17.0001 11.3L8.57515 2.87499C8.34181 2.64166 8.05015 2.52499 7.70015 2.52499C7.35015 2.52499 7.05015 2.64999 6.80015 2.89999C6.55015 3.14999 6.42515 3.44166 6.42515 3.77499C6.42515 4.10833 6.55015 4.39999 6.80015 4.64999L14.1501 12L6.80015 19.35C6.56681 19.5833 6.45015 19.8707 6.45015 20.212C6.45015 20.554 6.57515 20.85 6.82515 21.1C7.07515 21.35 7.36681 21.475 7.70015 21.475C8.03348 21.475 8.32515 21.35 8.57515 21.1Z" fill="#ffffff"/>
</svg>
