<svg width="24" height="24" viewBox="0 0 24 24" fill="none" xmlns="http://www.w3.org/2000/svg">
<path d="M15.125 21.1L6.70005 12.7C6.60005 12.6 6.52938 12.4917 6.48805 12.375C6.44605 12.2583 6.42505 12.1333 6.42505 12C6.42505 11.8667 6.44605 11.7417 6.48805 11.625C6.52938 11.5083 6.60005 11.4 6.70005 11.3L15.125 2.87499C15.3584 2.64166 15.65 2.52499 16 2.52499C16.35 2.52499 16.65 2.64999 16.9 2.89999C17.15 3.14999 17.275 3.44166 17.275 3.77499C17.275 4.10833 17.15 4.39999 16.9 4.64999L9.55005 12L16.9 19.35C17.1334 19.5833 17.25 19.8707 17.25 20.212C17.25 20.554 17.125 20.85 16.875 21.1C16.625 21.35 16.3334 21.475 16 21.475C15.6667 21.475 15.375 21.35 15.125 21.1Z" fill="#ffffff"/>
</svg>
